<?xml version="1.0" encoding="UTF-8"?>
<svg width="156px" height="48px" viewBox="0 0 156 48" version="1.1" xmlns="http://www.w3.org/2000/svg" xmlns:xlink="http://www.w3.org/1999/xlink">
    <!-- Generator: sketchtool 53.2 (72643) - https://sketchapp.com -->
    <title>9289ECB6-BFCB-4AB4-A417-F97AD170EE1E</title>
    <desc>Created with sketchtool.</desc>
    <defs>
        <polygon id="path-1" points="0 47.9080472 155.925685 47.9080472 155.925685 0 0 0"></polygon>
    </defs>
    <g id="Asset-Artboard-Page" stroke="none" stroke-width="1" fill="none" fill-rule="evenodd">
        <g id="logo">
            <g id="Group-19">
                <path d="M60.8621605,15.2038457 C63.3324835,15.2038457 64.6024786,16.6740143 64.6024786,19.2465445 L64.6024786,19.8669782 L62.2007568,19.8669782 L62.2007568,19.0853878 C62.2007568,17.9372433 61.738958,17.5008095 60.9307617,17.5008095 C60.1227592,17.5008095 59.6609604,17.9372433 59.6609604,19.0853878 C59.6609604,22.3935324 64.6261208,23.0134842 64.6261208,27.6073156 C64.6261208,30.1808096 63.3324835,31.6508818 60.8385182,31.6508818 C58.3438747,31.6508818 57.0513032,30.1808096 57.0513032,27.6073156 L57.0513032,26.5051469 L59.4529281,26.5051469 L59.4529281,27.7694361 C59.4529281,28.9172915 59.9610424,29.3300144 60.7690449,29.3300144 C61.5781133,29.3300144 62.0861307,28.9172915 62.0861307,27.7694361 C62.0861307,24.4606168 57.1199044,23.8407613 57.1199044,19.2465445 C57.1199044,16.6740143 58.3908685,15.2038457 60.8621605,15.2038457" id="Fill-1" fill="#3E7DBF"></path>
                <path d="M65.3889418,29.170237 C65.6664474,29.1933695 65.9892027,29.1933695 66.2666114,29.1933695 C67.0757766,29.1933695 67.7210933,28.893996 67.7210933,27.653996 L67.7210933,15.3872967 L70.2619554,15.3872967 L70.2619554,27.4708634 C70.2619554,30.6859961 68.5300648,31.513466 66.6128151,31.513466 C66.1519853,31.513466 65.8048126,31.513466 65.3889418,31.4664298 L65.3889418,29.170237 Z" id="Fill-3" fill="#3E7DBF"></path>
                <mask id="mask-2" fill="white">
                    <use xlink:href="#path-1"></use>
                </mask>
                <g id="Clip-6"></g>
                <polygon id="Fill-5" fill="#3E7DBF" mask="url(#mask-2)" points="75.5744403 31.4664101 78.1143334 31.4664101 78.1143334 15.3872776 75.5744403 15.3872776"></polygon>
                <polygon id="Fill-7" fill="#3E7DBF" mask="url(#mask-2)" points="82.2253915 19.8205586 82.2253915 31.466438 79.9403307 31.466438 79.9403307 15.3873056 83.1265096 15.3873056 85.7361667 25.0123658 85.7361667 15.3873056 87.9986512 15.3873056 87.9986512 31.466438 85.388994 31.466438"></polygon>
                <polygon id="Fill-8" fill="#3E7DBF" mask="url(#mask-2)" points="92.0882751 19.8205586 92.0882751 31.466438 89.8020514 31.466438 89.8020514 15.3873056 92.98949 15.3873056 95.5979845 25.0123658 95.5979845 15.3873056 97.8612442 15.3873056 97.8612442 31.466438 95.2518777 31.466438"></polygon>
                <path d="M102.019477,27.7694462 C102.019477,28.9173016 102.527495,29.3537353 103.335594,29.3537353 C104.143596,29.3537353 104.65142,28.9173016 104.65142,27.7694462 L104.65142,19.085398 C104.65142,17.9372535 104.143596,17.5008197 103.335594,17.5008197 C102.527495,17.5008197 102.019477,17.9372535 102.019477,19.085398 L102.019477,27.7694462 Z M99.479487,19.2465548 C99.479487,16.6740246 100.841822,15.203856 103.335594,15.203856 C105.830528,15.203856 107.191604,16.6740246 107.191604,19.2465548 L107.191604,27.6072295 C107.191604,30.1808198 105.830528,31.6508921 103.335594,31.6508921 C100.841822,31.6508921 99.479487,30.1808198 99.479487,27.6072295 L99.479487,19.2465548 Z" id="Fill-9" fill="#3E7DBF" mask="url(#mask-2)"></path>
                <polygon id="Fill-10" fill="#3E7DBF" mask="url(#mask-2)" points="112.644182 28.5039232 114.584008 15.3872967 116.915966 15.3872967 114.422195 31.4664292 110.63498 31.4664292 108.140821 15.3872967 110.704259 15.3872967"></polygon>
                <path d="M119.942195,26.3673449 L122.390135,26.3673449 L121.166359,18.2358751 L119.942195,26.3673449 Z M125.738031,31.4664292 L123.175658,31.4664292 L122.737405,28.5496099 L119.618761,28.5496099 L119.180605,31.4664292 L116.848259,31.4664292 L119.434371,15.3872967 L123.153082,15.3872967 L125.738031,31.4664292 Z" id="Fill-11" fill="#3E7DBF" mask="url(#mask-2)"></path>
                <polygon id="Fill-12" fill="#3E7DBF" mask="url(#mask-2)" points="125.348035 15.3872967 133.199099 15.3872967 133.199099 17.6846461 130.543417 17.6846461 130.543417 31.4664292 128.003814 31.4664292 128.003814 17.6846461 125.348035 17.6846461"></polygon>
                <polygon id="Fill-13" fill="#3E7DBF" mask="url(#mask-2)" points="134.355537 31.4664101 136.895527 31.4664101 136.895527 15.3872776 134.355537 15.3872776"></polygon>
                <path d="M141.076157,27.7694462 C141.076157,28.9173016 141.584174,29.3537353 142.392176,29.3537353 C143.200276,29.3537353 143.708099,28.9173016 143.708099,27.7694462 L143.708099,19.085398 C143.708099,17.9372535 143.200276,17.5008197 142.392176,17.5008197 C141.584174,17.5008197 141.076157,17.9372535 141.076157,19.085398 L141.076157,27.7694462 Z M138.536166,19.2465548 C138.536166,16.6740246 139.897436,15.203856 142.392177,15.203856 C144.885948,15.203856 146.24809,16.6740246 146.24809,19.2465548 L146.24809,27.6072295 C146.24809,30.1808198 144.885948,31.6508921 142.392177,31.6508921 C139.897436,31.6508921 138.536166,30.1808198 138.536166,27.6072295 L138.536166,19.2465548 Z" id="Fill-14" fill="#3E7DBF" mask="url(#mask-2)"></path>
                <polygon id="Fill-15" fill="#3E7DBF" mask="url(#mask-2)" points="150.153286 19.8205586 150.153286 31.466438 147.866287 31.466438 147.866287 15.3873056 151.053435 15.3873056 153.662317 25.0123658 153.662317 15.3873056 155.925673 15.3873056 155.925673 31.466438 153.316888 31.466438"></polygon>
                <path d="M42.980501,38.9849073 C40.3560191,38.9420158 37.9730949,40.7312206 37.4287422,43.0968111 C36.8836142,45.4596063 38.4388664,47.6622088 41.1522973,47.8905462 C43.866019,48.1168594 46.6873904,46.1228353 47.1425034,43.5728593 C47.5953878,41.0228833 45.6036264,39.0288591 42.980501,38.9849073 M30.1737727,38.8006164 C28.0691291,38.7749778 25.9872558,40.4003273 25.3565701,42.5231226 C24.7231713,44.6459178 25.8038347,46.5988818 27.9632236,46.7782553 C30.1237751,46.959942 32.52821,45.1707371 33.1058945,42.8900623 C33.6865827,40.6093875 32.2792882,38.8258694 30.1737727,38.8006164 M19.7989966,38.6873648 C18.0739855,38.6677022 16.225434,40.1487623 15.540875,42.0704008 C14.8553471,43.9904971 15.6066663,45.7404729 17.3630712,45.88775 C19.1233519,46.0351235 21.2152052,44.4117983 21.8692425,42.3592683 C22.5233766,40.3068346 21.5230388,38.704907 19.7989966,38.6873648 M45.4154577,27.2003276 C42.9206204,27.3846168 40.6797433,29.0957493 40.2032166,31.1349782 C39.7264961,33.1738216 41.253552,34.8945926 43.8334627,34.8574842 C46.4137609,34.8182553 49.0458976,32.9003758 49.4361883,30.7173397 C49.8245411,28.5330505 47.9102951,27.0132433 45.4154577,27.2003276 M33.1676149,28.1419185 C31.1407777,28.3047137 29.1753715,29.8675089 28.6114461,31.7202318 C28.0466486,33.5718944 29.1322535,35.1267859 31.2112199,35.0827377 C33.2922211,35.0397498 35.559744,33.3112679 36.0696024,31.3376775 C36.5814956,29.3650511 35.1937738,27.9808583 33.1676149,28.1419185 M47.545486,16.9827857 C45.1751581,17.3457737 43.0608253,18.9957014 42.6410787,20.7717014 C42.2204601,22.5500147 43.707111,23.8870749 46.1597022,23.6379183 C48.6105493,23.388087 51.0731207,21.5395086 51.4093443,19.6513159 C51.7469244,17.7631231 49.9147481,16.6218219 47.545486,16.9827857 M28.2416976,22.6949786 C28.7674466,21.1044243 27.7582913,20.0999906 26.1273646,20.3684243 C24.4955657,20.6327135 22.8077619,22.0150749 22.2545917,23.5261111 C21.7005495,25.0372436 22.4999284,26.1811473 24.1621521,25.9939666 C25.8254416,25.8064003 27.718177,24.2841834 28.2416976,22.6949786 M10.9209494,22.906738 C9.72846995,23.1110754 8.33881033,24.3011476 7.73854947,25.617003 C7.13741655,26.9300632 7.55319046,27.9333402 8.75855691,27.7868342 C9.96479542,27.6414848 11.4986339,26.3526174 12.0870737,24.9784488 C12.6754165,23.6041838 12.1154637,22.7043284 10.9209494,22.906738 M18.9282063,19.2475565 C20.3089517,18.9846167 21.9281542,17.6431228 22.4429542,16.3188819 C22.9568821,14.9936771 22.1947107,14.2216289 20.8316001,14.535653 C19.4686834,14.8503518 18.0004424,16.0989301 17.4679107,17.3720866 C16.9363479,18.6421589 17.5493989,19.5085685 18.9282063,19.2475565 M13.92768,16.1433641 C12.7479905,16.4203762 11.4045495,17.5826894 10.8571929,18.7824967 C10.3100302,19.9825931 10.7649495,20.8141111 11.956557,20.5824003 C13.1460328,20.3531955 14.6229943,19.1064485 15.1594018,17.863075 C15.6977472,16.6164244 15.1093074,15.8663521 13.92768,16.1433641 M29.6794161,10.3164722 C31.2524,9.92582162 32.9745044,8.51415902 33.4020995,7.24302653 C33.8305666,5.97247235 32.8410808,5.35386996 31.2985218,5.79300248 C29.7539279,6.23483379 28.195672,7.53680965 27.7387179,8.75676142 C27.280698,9.9759421 28.1053664,10.7067373 29.6794161,10.3164722 M21.737854,12.3001832 C23.0931161,11.9607133 24.6504031,10.6609543 25.1193721,9.46182179 C25.5889224,8.26297845 24.8123137,7.6420628 23.4756553,8.02259291 C22.1409347,8.40399049 20.7209471,9.61497841 20.2344403,10.7715085 C19.7480303,11.9269784 20.3855955,12.6412916 21.737854,12.3001832 M14.8730787,14.0239421 C16.0459855,13.7284241 17.4729494,12.5169542 17.9632351,11.3827855 C18.4555556,10.2457253 17.8446363,9.62827954 16.6785121,9.9605205 C15.5145196,10.2934362 14.2140998,11.4255807 13.7110241,12.5260144 C13.2097893,13.6259662 13.698234,14.3195566 14.8730787,14.0239421" id="Fill-16" fill="#E88224" mask="url(#mask-2)"></path>
                <path d="M11.0650509,38.69923 C9.62549071,38.6883384 7.96036028,40.040242 7.24624848,41.7878083 C6.53048947,43.5377842 7.03647208,45.1160011 8.49860872,45.2391818 C9.95793542,45.3600493 11.820246,43.8888204 12.5184671,42.0255914 C13.2148472,40.1643866 12.507518,38.7079047 11.0650509,38.69923 M3.84438274,38.6532517 C2.6224473,38.6462155 1.1151578,39.895083 0.386511815,41.4948902 C-0.3451379,43.0926733 -0.0204447212,44.5209142 1.21127706,44.6252998 C2.44299884,44.7298781 4.11103617,43.3815408 4.83096166,41.6861191 C5.55263125,39.9905047 5.06719024,38.6581673 3.84438274,38.6532517 M22.9832578,29.0550847 C21.3043684,29.1992775 19.5431187,30.6256871 18.9302616,32.3248678 C18.3153697,34.0204822 19.0968231,35.4309882 20.8062343,35.3901208 C22.5125448,35.3490605 24.5082789,33.7775907 25.0899361,31.979422 C25.6703336,30.1807714 24.6611783,28.9145546 22.9832578,29.0550847 M14.594527,29.7835662 C13.181322,29.9096385 11.5908003,31.2295421 10.9473245,32.7903131 C10.3030736,34.3541685 10.8484922,35.6476625 12.2841767,35.6106504 C13.7178264,35.5733492 15.494773,34.1354697 16.1177072,32.486024 C16.7422886,30.8384095 16.0107358,29.6579758 14.594527,29.7835662 M5.09955269,35.8174927 C6.31867819,35.7803843 7.9121068,34.4596131 8.56439999,32.937589 C9.21649938,31.415854 8.69084719,30.3184082 7.48063598,30.4294443 C6.27052166,30.5416371 4.82408187,31.7639986 4.16607192,33.212577 C3.50496134,34.6585529 3.87868309,35.8544084 5.09955269,35.8174927 M35.6861131,18.8909393 C33.7384387,19.1986019 31.8654698,20.7011561 31.3622971,22.3334452 C30.8562176,23.9661198 31.9427915,25.1988908 33.9424983,24.9836619 C35.9421082,24.7660234 38.0848311,23.0963367 38.5379093,21.3727705 C38.9909876,19.6474694 37.6365976,18.5810598 35.6861131,18.8909393 M17.7856472,21.8076625 C16.3960845,22.040048 14.8681566,23.3184095 14.2865964,24.7227468 C13.7021293,26.1272769 14.2887281,27.1916624 15.6937939,27.0278069 C17.1011851,26.8658792 18.7948994,25.4708913 19.3617316,23.9952287 C19.9274981,22.5222649 19.1752099,21.5745059 17.7856472,21.8076625 M49.2763316,8.12978281 C47.0237304,8.63320449 45.0222795,10.2307948 44.6475889,11.791855 C44.273092,13.3537827 45.7225354,14.3746984 48.0524583,13.9634213 C50.3836409,13.5532044 52.6833328,11.7812526 52.9783762,10.1287225 C53.2746793,8.47667437 51.5280607,7.62896354 49.2763316,8.12978281 M38.0779536,10.6373498 C36.2030467,11.0593257 34.4150542,12.5225546 33.9620728,13.9722896 C33.5089945,15.4224101 34.58772,16.3823137 36.5108803,16.0310848 C38.4330716,15.681398 40.4629126,14.0810125 40.8681251,12.557157 C41.2730468,11.0331088 39.9540232,10.2136389 38.0779536,10.6373498 M28.6880133,12.7768195 C27.1011735,13.1422171 25.4820678,14.4858316 24.9788951,15.8380244 C24.477951,17.1919522 25.2958368,18.1027956 26.9137797,17.8013016 C28.5311412,17.4993257 30.3316332,16.0399521 30.8041872,14.62694 C31.278873,13.2118075 30.2747562,12.4115183 28.6880133,12.7768195 M50.9433995,0.234746994 C48.8036802,0.844000022 46.9098789,2.39860247 46.5755932,3.78279528 C46.2382069,5.17007243 47.6395907,5.93296401 49.8510119,5.3949399 C52.0634989,4.85691579 54.2258915,3.14481936 54.4838245,1.68746992 C54.7445673,0.230987958 53.0813747,-0.373445793 50.9433995,0.234746994 M40.2354047,3.28544579 C38.4310369,3.80053012 36.7276331,5.21354213 36.3168007,6.51137343 C35.9058715,7.80949388 36.972679,8.55908422 38.8242344,8.10154207 C40.6738519,7.64399991 42.5930396,6.09739753 42.957847,4.74433732 C43.3216856,3.39175904 42.0408383,2.77219279 40.2354047,3.28544579" id="Fill-17" fill="#397DC0" mask="url(#mask-2)"></path>
                <path d="M51.4093633,19.651325 C51.1084093,21.3385539 49.1096714,22.9939755 46.9383646,23.505108 L46.0263945,27.1898309 C48.2133982,27.2727224 49.7922925,28.715614 49.4362056,30.7173488 C49.0606429,32.8166259 46.6139622,34.6682885 44.1325933,34.8428427 L43.105997,38.9900234 C45.6664317,39.0950836 47.5875572,41.063951 47.1424243,43.5728666 C46.6874081,46.1228425 43.8660368,48.1168665 41.1523151,47.8904569 C38.5281238,47.6692521 36.9864369,45.601975 37.3817661,43.3268907 L33.0127973,43.2060233 C32.3036271,45.3328666 30.0226358,46.9510834 27.9631452,46.7782642 C25.9625664,46.6125774 24.8897515,44.9247702 25.2458384,42.9895414 L21.6644273,42.889204 C20.8494485,44.6828425 18.9683404,46.0233726 17.3639628,45.8877582 C15.6066859,45.7404811 14.8553666,43.9905052 15.5408946,42.0704088 C16.2254536,40.1487703 18.0740051,38.6677101 19.7990162,38.6873728 C21.49961,38.7049149 22.4929714,40.2647221 21.8918385,42.2762884 L25.4202484,42.3249631 C26.1175005,40.3008667 28.1347452,38.7749872 30.1736942,38.8006258 C32.1361936,38.8248186 33.4903898,40.3750836 33.1971873,42.4324329 L37.612181,42.4938305 C37.9045114,41.7185052 38.3978009,41.0247221 39.0273238,40.4628908 L33.8620767,34.1949391 C33.0489389,34.728915 32.1125513,35.0642403 31.2111426,35.0827463 C29.1321762,35.1267945 28.0466682,33.571903 28.6114657,31.7202404 C28.8575775,30.9123368 29.3705365,30.159373 30.0383327,29.5544573 L26.3518881,25.0806261 C25.6684918,25.5714212 24.8935304,25.911855 24.1631403,25.9939755 C22.4999478,26.1811562 21.7006658,25.0372526 22.2537391,23.5261201 C22.4989789,22.8579755 22.9667851,22.215084 23.5522211,21.6823611 L20.8022609,18.3455901 C20.2098485,18.7962889 19.545056,19.1304575 18.9281293,19.247566 C17.5493218,19.508578 16.9363678,18.6421684 17.4679305,17.3720961 C17.7083256,16.798313 18.1387305,16.2306986 18.6634137,15.7497347 L16.5176871,13.1455902 C16.0694536,13.5020239 15.5801368,13.7898311 15.1152374,13.9503131 L14.1797219,16.1003853 C15.1898461,15.982313 15.6576523,16.7091564 15.1593244,17.8630841 C14.6690387,19.000819 13.3912921,20.1386503 12.2664449,20.5000961 L11.2297717,22.8813972 C12.2066611,22.8754213 12.622435,23.7298791 12.0869965,24.9784574 C11.4986537,26.3526261 9.96481519,27.6414935 8.75857671,27.7868429 C7.55321028,27.9333489 7.13743637,26.9300718 7.73847238,25.6170116 C8.28883262,24.410361 9.50388849,23.3111803 10.6208872,22.9793249 L11.680912,20.6162406 C10.6993717,20.6736864 10.3551059,19.8850599 10.8571158,18.7825057 C11.3623232,17.6764817 12.5440474,16.603807 13.6491281,16.2257829 L14.6142933,14.0728191 C13.6306213,14.2078552 13.2490511,13.5410601 13.7110437,12.5260239 C14.2141194,11.4255902 15.5144424,10.2934457 16.6785318,9.96053002 C17.7346808,9.6594216 18.331938,10.1394216 18.0701293,11.0769637 L20.3952075,10.4495903 C20.9846162,9.39802401 22.2644944,8.36872283 23.4755776,8.02260235 C24.6907304,7.67715658 25.438949,8.15946982 25.2134757,9.14973486 L27.8896992,8.42742162 C28.4770731,7.3104096 29.892216,6.19532529 31.2985414,5.79301204 C32.8411004,5.35387952 33.830683,5.97248192 33.4020221,7.24303611 C32.974524,8.51416861 31.2524197,9.92583123 29.679339,10.3164818 C28.2251477,10.6769637 27.4120098,10.0789879 27.6591874,9.0227951 L25.0084471,9.70626497 C24.4395801,10.8320481 23.0008919,11.9835661 21.7378733,12.3000962 C20.4590609,12.6231806 19.8206237,12.0007227 20.1667305,10.9539758 L17.8857392,11.5422167 C17.6532895,12.0040962 17.275692,12.4706023 16.8324001,12.876289 L19.0056448,15.4599034 C19.571605,15.016048 20.2118833,14.6785058 20.8316199,14.5356625 C22.1947304,14.2216384 22.9569018,14.9936865 22.4429739,16.3188913 C22.2076174,16.9231323 21.741846,17.5304576 21.1739478,18.0377347 L23.9580149,21.3479033 C24.6161217,20.8493009 25.3771304,20.4897828 26.1273838,20.368337 C27.7583104,20.0999997 28.7674657,21.1044334 28.2416197,22.6949876 C28.0005464,23.4276141 27.46598,24.1446261 26.7990558,24.7250598 L30.5286184,29.159373 C31.3073588,28.5945537 32.2301811,28.2171079 33.1676345,28.1419272 C35.1936966,27.980867 36.5815152,29.3650597 36.069622,31.3376862 C35.8331028,32.2527705 35.2174357,33.1161922 34.4181538,33.7823126 L39.6372741,39.9867462 C40.423766,39.4560475 41.3534679,39.1076137 42.3381088,39.0122884 L43.3991995,34.8458307 C41.0846828,34.6946018 39.752966,33.0566259 40.2032344,31.1349874 C40.6757884,29.1153248 42.879361,27.4180718 45.3466802,27.2072766 L46.2588442,23.62559 C46.2255125,23.6299273 46.1932466,23.6344574 46.1597212,23.6379273 C43.707033,23.8870839 42.220479,22.5500237 42.6410977,20.7717105 C43.0608442,18.9957105 45.1751771,17.3457829 47.545505,16.9826985 C49.9147671,16.6218311 51.7468465,17.7631323 51.4093633,19.651325" id="Fill-18" fill="#EA7826" mask="url(#mask-2)"></path>
            </g>
        </g>
    </g>
</svg>